<svg width="312" height="182" viewBox="0 0 312 182" fill="none" xmlns="http://www.w3.org/2000/svg">
<path d="M207.449 108.915C207.449 99.1844 209.383 90.3271 213.25 82.3429C217.117 74.3588 222.17 68.3708 228.408 64.3787C234.645 60.3867 241.662 58.3906 249.459 58.3906C262.558 58.3906 272.85 63.5366 280.335 73.8286C287.82 84.0583 291.563 96.0344 291.563 109.757C291.563 119.987 289.598 129.218 285.669 137.452C281.801 145.686 276.686 151.892 270.324 156.071C264.024 160.188 257.1 162.246 249.553 162.246C237.452 162.246 227.409 157.631 219.425 148.399C211.441 139.167 207.449 126.006 207.449 108.915ZM229.53 110.319C229.53 120.361 231.495 127.971 235.425 133.148C239.354 138.263 244.095 140.82 249.646 140.82C255.073 140.82 259.72 138.232 263.587 133.055C267.455 127.877 269.388 120.236 269.388 110.131C269.388 100.276 267.424 92.7597 263.494 87.5825C259.564 82.4053 254.855 79.8167 249.366 79.8167C243.939 79.8167 239.261 82.4053 235.331 87.5825C231.464 92.7597 229.53 100.338 229.53 110.319Z" fill="white"/>
<path d="M150.656 60.6388H162.632V53.1537C162.632 44.1093 163.474 37.5598 165.159 33.5054C166.905 29.4509 169.681 26.2698 173.486 23.9619C177.353 21.654 182.094 20.5 187.707 20.5C193.82 20.5 199.808 21.6228 205.672 23.8683L202.865 42.2068C199.372 41.2088 196.035 40.7098 192.854 40.7098C189.797 40.7098 187.583 41.583 186.21 43.3296C184.838 45.0761 184.152 48.5067 184.152 53.6216V60.6388H200.245V81.3164H184.152V160.004H162.632V81.3164H150.656V60.6388Z" fill="white"/>
<path d="M138.211 160.001H116.598V109.289C116.598 99.122 116.193 92.3543 115.382 88.986C114.571 85.6177 113.043 83.0291 110.797 81.2202C108.614 79.4113 106.119 78.5068 103.312 78.5068C99.6944 78.5068 96.4197 79.692 93.488 82.0623C90.5564 84.3702 88.498 87.5825 87.3128 91.6993C86.1277 95.8161 85.5351 103.582 85.5351 114.997V160.001H63.9219V60.6362H83.9445V75.2321C87.4999 69.6183 91.492 65.4079 95.9207 62.601C100.412 59.7941 105.371 58.3906 110.797 58.3906C117.097 58.3906 122.399 60.0436 126.703 63.3495C131.069 66.593 134.064 70.8034 135.685 75.9806C137.369 81.0954 138.211 88.5182 138.211 98.2488V160.001Z" fill="white"/>
<path d="M19.7617 160V22.8359H42.4041V160H19.7617Z" fill="white"/>
<path fill-rule="evenodd" clip-rule="evenodd" d="M192.484 81.3126C189.36 90.0591 187.871 99.3124 187.871 108.914C187.871 128.837 192.521 147.218 204.617 161.204C216.283 174.693 231.71 181.822 249.552 181.822C260.891 181.822 271.538 178.662 281.032 172.458L281.071 172.433C290.982 165.923 298.261 156.667 303.362 145.827C308.675 134.672 311.139 122.526 311.139 109.756C311.139 92.248 306.284 76.1486 296.148 62.2874C284.854 46.7738 268.593 38.8125 249.458 38.8125C238.128 38.8125 227.412 41.7711 217.853 47.8884C210.665 52.4892 204.853 58.5531 200.244 65.6173V81.3126H192.484ZM285.667 137.451C289.597 129.217 291.562 119.986 291.562 109.756C291.562 96.0333 287.819 84.0571 280.334 73.8275C272.849 63.5355 262.557 58.3895 249.458 58.3895C241.661 58.3895 234.644 60.3855 228.406 64.3776C222.169 68.3696 217.116 74.3577 213.249 82.3418C209.382 90.3259 207.448 99.1833 207.448 108.914C207.448 126.005 211.44 139.166 219.424 148.398C227.408 157.629 237.451 162.245 249.552 162.245C257.099 162.245 264.023 160.187 270.323 156.07C276.685 151.891 281.8 145.684 285.667 137.451ZM235.424 133.147C231.494 127.97 229.529 120.36 229.529 110.317C229.529 100.337 231.463 92.7586 235.33 87.5814C239.26 82.4042 243.938 79.8156 249.365 79.8156C254.854 79.8156 259.563 82.4042 263.493 87.5814C267.422 92.7586 269.387 100.275 269.387 110.13C269.387 120.235 267.454 127.876 263.586 133.053C259.719 138.231 255.072 140.819 249.645 140.819C244.094 140.819 239.353 138.262 235.424 133.147ZM249.453 116.033C249.665 114.491 249.81 112.55 249.81 110.13C249.81 107.84 249.668 106 249.46 104.534C249.25 106.047 249.106 107.949 249.106 110.317C249.106 112.653 249.247 114.533 249.453 116.033Z" fill="black"/>
<path fill-rule="evenodd" clip-rule="evenodd" d="M131.078 60.6377C131.078 52.3611 136.214 45.2841 143.473 42.4201C143.986 36.5486 145.049 30.8796 147.078 25.9944C147.111 25.9157 147.144 25.8373 147.178 25.7591C150.549 17.9338 156.076 11.623 163.332 7.22221C163.372 7.1979 163.412 7.17374 163.452 7.14972C171.017 2.63501 179.424 0.921875 187.706 0.921875C196.278 0.921875 204.636 2.50717 212.672 5.58506C221.274 8.87932 226.416 17.7242 225.022 26.8291L222.215 45.1676C221.729 48.3435 220.476 51.3123 218.608 53.8401C219.393 55.9575 219.821 58.2476 219.821 60.6377V72.006C217.562 74.7072 215.542 77.8103 213.76 81.3153C213.587 81.6546 213.417 81.9977 213.249 82.3445C210.704 87.5984 208.997 93.2304 208.127 99.2405C206.738 99.8523 205.264 100.307 203.728 100.583V160.002C203.728 170.814 194.963 179.579 184.151 179.579H162.631C151.819 179.579 143.054 170.814 143.054 160.002V99.362C141.29 98.6179 139.657 97.6225 138.201 96.4207C138.133 90.4669 137.73 85.4318 136.993 81.3153C136.635 79.3223 136.199 77.5445 135.685 75.9822C134.678 72.7683 133.143 69.9269 131.078 67.4582V60.6377ZM184.151 81.3153H200.244V60.6377H184.151V53.6204C184.151 48.5056 184.837 45.0749 186.209 43.3284C187.079 42.2222 188.286 41.4663 189.83 41.0607C190.725 40.826 191.732 40.7086 192.852 40.7086C192.931 40.7086 193.01 40.7089 193.089 40.7095C193.356 40.7116 193.623 40.7172 193.892 40.7262C195.103 40.7669 196.336 40.8784 197.591 41.0607C198.056 41.1284 198.525 41.2057 198.997 41.2929C199.41 41.3692 199.826 41.453 200.244 41.5443C201.107 41.7329 201.98 41.9533 202.864 42.2057L205.671 23.8672C202.57 22.6796 199.434 21.806 196.263 21.2465C193.439 20.7481 190.586 20.4989 187.706 20.4989C182.093 20.4989 177.352 21.6528 173.485 23.9607C169.68 26.2686 166.904 29.4498 165.157 33.5042C163.473 37.5587 162.631 44.1081 162.631 53.1526V60.6377H150.655V81.3153H162.631V160.002H184.151V81.3153Z" fill="black"/>
<path fill-rule="evenodd" clip-rule="evenodd" d="M116.597 109.288V160H138.21V98.2476C138.21 88.517 137.368 81.0943 135.684 75.9795C134.062 70.8023 131.068 66.5919 126.702 63.3484C122.398 60.0424 117.096 58.3895 110.796 58.3895C108.781 58.3895 106.831 58.583 104.945 58.9699C104.451 59.0712 103.962 59.1859 103.476 59.3138C103.421 59.3283 103.366 59.343 103.311 59.3579C102.063 59.6954 100.845 60.1211 99.6554 60.635C98.3761 61.1879 97.1308 61.8428 95.9195 62.5999C92.2737 64.9106 88.9238 68.1724 85.8698 72.3854C85.8374 72.4301 85.805 72.4749 85.7727 72.5199C85.1506 73.3839 84.5408 74.2876 83.9434 75.231V60.635H63.9207V160H85.534V114.996C85.534 105.872 85.9125 99.0795 86.6696 94.6182C86.8598 93.4979 87.0738 92.5245 87.3117 91.6982C88.4968 87.5814 90.5552 84.369 93.4869 82.0611C93.6712 81.9121 93.8569 81.7677 94.044 81.628C96.8317 79.5465 99.9208 78.5057 103.311 78.5057C104.262 78.5057 105.176 78.6094 106.055 78.8168C106.112 78.8301 106.168 78.8439 106.224 78.858C106.373 78.8956 106.521 78.9363 106.668 78.9799C108.15 79.42 109.526 80.1664 110.796 81.219C113.042 83.0279 114.57 85.6165 115.381 88.9848C116.192 92.3531 116.597 99.1209 116.597 109.288ZM91.8052 42.7006C89.399 41.6443 86.7397 41.058 83.9434 41.058H63.9207C53.1087 41.058 44.3438 49.8229 44.3438 60.635V160C44.3438 170.812 53.1087 179.577 63.9207 179.577H85.534C91.8608 179.577 97.4867 176.575 101.066 171.919C104.644 176.575 110.27 179.577 116.597 179.577H138.21C149.022 179.577 157.787 170.812 157.787 160V98.2476C157.787 92.357 157.516 86.6346 156.8 81.3126H150.654V61.5028C147.647 56.1486 143.56 51.5095 138.5 47.725C130.271 41.4535 120.635 38.8125 110.796 38.8125C104.172 38.8125 97.7809 40.1042 91.8052 42.7006Z" fill="black"/>
<path fill-rule="evenodd" clip-rule="evenodd" d="M19.7606 179.576C8.94851 179.576 0.183594 170.811 0.183594 159.999V22.8348C0.183594 12.0227 8.94851 3.25781 19.7606 3.25781H42.403C53.2151 3.25781 61.98 12.0227 61.98 22.8348V159.999C61.98 170.811 53.2151 179.576 42.403 179.576H19.7606ZM19.7606 159.999H42.403V22.8348H19.7606V159.999Z" fill="black"/>
</svg>
