<svg width="966" height="245" viewBox="0 0 966 245" fill="none" xmlns="http://www.w3.org/2000/svg">
<path d="M965.465 197.998V221.385C965.465 231.035 957.632 238.84 947.982 238.84H874.47C873.364 238.84 872.285 238.727 871.235 238.5C870.213 238.698 869.134 238.84 868.028 238.84H794.516C793.892 238.84 793.324 238.727 792.757 238.67C791.934 238.784 791.167 238.84 790.344 238.84H768.802C765.793 238.84 762.927 238.102 760.429 236.712C754.156 239.72 747.458 241.224 740.476 241.224C730.428 241.224 721.403 238.273 713.881 232.738C712.207 234.555 710.305 236.229 708.261 237.677C701.336 242.53 693.105 244.971 683.767 244.971C677.495 244.971 670.768 243.751 663.161 241.224C654.987 238.528 650.02 230.269 651.411 221.782L655.186 199.048C656.009 194.194 658.876 189.88 663.019 187.212C664.95 185.992 667.078 185.169 669.292 184.743V136.833C667.532 137.457 665.631 137.855 663.615 137.855H641.789C636.113 137.855 631.117 135.187 627.967 131.043C624.76 135.187 619.764 137.855 614.088 137.855H592.29C586.585 137.855 581.533 135.158 578.326 130.929C575.118 135.158 570.066 137.855 564.361 137.855H542.535C542.081 137.855 541.684 137.77 541.229 137.741C540.491 137.826 539.782 137.855 539.044 137.855H517.501C514.493 137.855 511.626 137.117 509.129 135.726C502.884 138.735 496.158 140.239 489.147 140.239C477.255 140.239 466.782 136.095 458.607 128.375C458.324 128.574 458.068 128.857 457.784 129.084C448.503 136.464 437.349 140.239 424.577 140.239C402.58 140.239 389.723 130.049 382.797 121.535C380.158 118.327 377.83 114.751 375.872 110.948V120.428C375.872 130.078 368.038 137.883 358.417 137.883H336.59C335.199 137.883 333.894 137.684 332.56 137.401C331.254 137.684 329.92 137.883 328.53 137.883H308.293C305.596 137.883 303.042 137.259 300.743 136.152C294.839 138.451 288.709 139.643 282.521 139.643C268.784 139.643 256.21 134.335 246.163 124.345C245.993 124.174 245.879 124.004 245.709 123.862L240.77 140.438C240.685 140.721 240.6 140.977 240.515 141.261C237.45 150.031 234.242 156.644 230.751 161.384C226.551 167.06 221.215 171.403 214.857 174.383C208.783 177.25 201.602 178.726 193.542 178.726C187.808 178.726 182.132 177.988 176.625 176.512C169.558 174.61 164.421 168.508 163.74 161.214L161.838 140.409C161.81 139.586 161.81 138.735 161.838 137.911H157.581C154.572 137.911 151.705 137.174 149.208 135.783C142.935 138.791 136.237 140.296 129.255 140.296C121.279 140.296 113.956 138.451 107.514 134.96C104.732 136.861 101.411 137.911 97.75 137.911H77.5415C74.8451 137.911 72.2339 137.287 69.9349 136.18C64.0597 138.479 57.9574 139.671 51.7132 139.671C38.0044 139.671 25.4025 134.364 15.355 124.373C5.16565 114.184 0 100.248 0 82.8207C0 65.3937 5.13727 51.3443 15.2699 41.4955C25.1187 31.9021 37.8341 26.85 52.0538 26.85C54.2393 26.85 56.368 26.9636 58.4683 27.219V17.7392C58.4399 8.0323 66.3019 0.227061 75.9237 0.227061H97.7216C103.143 0.227061 107.911 2.72474 111.09 6.5564C118.895 2.24223 128.488 0.0283827 139.785 0.0283827C150.286 0.0283827 158.829 1.4759 165.812 4.4277C168.281 3.1221 171.062 2.38415 173.929 2.38415H197.175C205.065 2.38415 211.962 7.63494 214.005 15.2415L216.645 24.7781L219.199 15.3267C221.215 7.69171 228.14 2.38415 236.03 2.38415H258.651C264.158 2.38415 269.352 5.02374 272.644 9.45143C275.936 13.8791 276.958 19.5841 275.34 24.8916L274.574 27.4744C277.27 27.0771 279.995 26.8216 282.833 26.8216C285.019 26.8216 287.148 26.9352 289.248 27.1906V17.7108C289.248 8.06068 297.053 0.255444 306.703 0.255444H328.53C331.538 0.255444 334.32 1.07854 336.789 2.38415H356.827C358.502 2.38415 360.148 2.63959 361.709 3.09371C366.023 1.07854 370.706 0.0567654 375.616 0.0567654C383.337 0.0567654 390.688 2.24223 397.499 6.58478C404.879 2.32738 413.223 0.0567654 422.334 0.0567654C437.434 0.0567654 450.32 5.36433 460.027 15.4402C461.588 13.6805 463.234 12.0343 465.022 10.5867C473.679 3.57622 485.372 0.0283827 499.734 0.0283827C511.967 0.0283827 521.532 1.95841 529.053 5.93198C529.678 6.27257 530.188 6.66993 530.785 7.03891C533.907 4.17225 538.022 2.35576 542.563 2.35576H562.63C565.269 2.35576 567.796 2.98018 570.066 4.03034C575.771 1.36237 581.902 0 588.345 0C597.172 0 605.119 2.32738 611.959 7.01052C612.214 7.18082 612.442 7.35112 612.697 7.54979C613.151 7.2092 613.605 6.92537 614.059 6.64155C621.041 2.21385 628.676 0 636.766 0C645.848 0 653.965 2.299 660.891 6.92538C667.816 11.495 673.124 17.9662 676.558 26.1688C679.623 33.4064 681.128 43.1701 681.128 55.999V64.6274C682.944 64.003 684.817 63.6056 686.833 63.6056H708.63C718.281 63.6056 726.114 71.4392 726.114 81.0893V105.669C733.181 102.547 741.554 100.957 751.119 100.957C763.352 100.957 772.917 102.887 780.439 106.918C781.829 107.656 783.135 108.564 784.412 109.472C787.619 105.726 792.303 103.313 797.582 103.313H865.643C867.744 103.313 869.759 103.767 871.632 104.448C873.477 103.739 875.492 103.313 877.593 103.313H945.597C955.248 103.313 963.081 111.147 963.081 120.797V139.643C963.081 143.247 961.946 146.795 959.846 149.747L938.019 180.542H948.067C957.717 180.542 965.55 188.348 965.55 197.998H965.465Z" fill="black"/>
<path d="M75.9264 17.6875V54.6134C72.6056 51.1507 68.9443 48.5679 64.9423 46.8365C60.9403 45.1052 56.6546 44.2537 52.0566 44.2537C42.2929 44.2537 34.0903 47.4893 27.4204 53.9606C20.7505 60.4318 17.4297 70.0536 17.4297 82.769C17.4297 95.4844 20.8356 105.135 27.6758 111.946C34.5161 118.758 42.5484 122.164 51.7444 122.164C56.541 122.164 61.1958 121.114 65.737 118.985C70.2782 116.857 74.1951 113.706 77.5442 109.477V120.404H97.7527V17.6875H75.9264ZM57.875 105.362C47.8559 105.362 39.7385 95.3425 39.7385 82.9677C39.7385 70.5928 47.8559 60.5737 57.875 60.5737C67.8941 60.5737 76.0116 70.5928 76.0116 82.9677C76.0116 95.3425 67.8941 105.362 57.875 105.362Z" fill="white"/>
<path d="M175.266 106.81C174.584 102.552 174.215 96.0526 174.215 87.3391L174.414 56.2317C174.414 44.4812 173.364 36.3638 171.292 31.9077C169.22 27.4516 165.757 23.9322 160.904 21.3494C156.051 18.7665 149.04 17.4609 139.816 17.4609C129.484 17.4609 121.566 19.7032 116.059 24.1593C110.553 28.6153 106.608 35.9097 104.195 46.0707L123.95 50.4132C125.34 45.5598 127.157 42.239 129.399 40.4793C131.641 38.7196 134.707 37.8397 138.595 37.8397C142.484 37.8397 145.435 38.4074 147.536 39.5143C149.636 40.6212 151.084 42.0687 151.878 43.8001C152.673 45.5314 153.07 49.2212 153.07 54.7842C149.097 56.7993 142.058 58.9848 131.982 61.3122C123.666 63.2706 117.62 65.5128 113.845 68.0389C110.071 70.5649 107.147 73.9425 105.075 78.1715C103.003 82.4005 101.953 87.3675 101.953 93.0724C101.953 102.041 104.508 109.251 109.616 114.643C114.725 120.064 121.282 122.761 129.257 122.761C134.026 122.761 138.567 121.654 142.824 119.412C147.082 117.169 151.055 113.849 154.773 109.421L157.612 120.405H179.154C177.252 115.608 175.975 111.067 175.266 106.81ZM153.07 77.4335C153.07 85.0969 152.474 90.376 151.311 93.2995C150.147 96.2229 148.047 98.7206 145.038 100.849C142.001 102.978 138.936 104.028 135.87 104.028C132.408 104.028 129.513 102.723 127.214 100.083C124.915 97.4433 123.751 94.2077 123.751 90.3477C123.751 86.9134 124.801 84.1319 126.873 81.9748C128.945 79.8177 133.344 77.8593 140.099 76.0996C145.946 74.5669 150.26 73.2613 153.042 72.126V77.4335H153.07Z" fill="white"/>
<path d="M236.037 19.8438L216.822 91.283L197.238 19.8438H173.992L205.298 120.744C203.595 128.039 201.381 133.091 198.714 135.872C196.046 138.654 192.611 140.016 188.467 140.016C185.743 140.016 182.677 139.619 179.3 138.796L181.201 159.628C185.232 160.707 189.376 161.246 193.605 161.246C199.082 161.246 203.709 160.366 207.484 158.607C211.23 156.847 214.324 154.321 216.765 151.029C219.177 147.736 221.647 142.57 224.116 135.475L229.679 116.629L258.715 19.8438H236.122H236.037Z" fill="white"/>
<path d="M375.561 17.4609C371.957 17.4609 368.806 18.5679 366.053 20.7817C363.328 22.9956 360.206 27.4516 356.744 34.15V19.8451H336.535V120.433H358.361V89.3259C358.361 73.5735 358.872 62.7881 359.894 56.9129C360.888 51.0377 362.562 46.9789 364.861 44.7083C367.16 42.4661 369.828 41.3592 372.837 41.3592C376.044 41.3592 379.45 42.8067 383.026 45.7017L389.838 22.5131C385.297 19.1639 380.528 17.4893 375.561 17.4893V17.4609Z" fill="white"/>
<path d="M461.534 74.7656C461.534 55.2951 457.703 40.5644 450.011 30.5454C443.341 21.8319 434.088 17.4609 422.309 17.4609C411.723 17.4609 403.094 21.7467 396.424 30.2615C388.534 40.3941 384.617 53.8475 384.617 70.6785C384.617 87.5094 388.534 101.048 396.368 110.528C402.981 118.702 412.375 122.761 424.552 122.761C433.322 122.761 440.758 120.32 446.889 115.438C453.019 110.556 457.504 103.035 460.427 92.9305L438.8 88.4744C436.472 98.0678 431.789 102.864 424.779 102.864C419.897 102.864 415.753 100.679 412.319 96.308C408.884 91.9371 407.096 85.7497 406.954 77.7741H461.478L461.591 74.7372L461.534 74.7656ZM407.295 61.5109C407.238 54.0178 408.828 48.1994 412.007 44.0271C415.157 39.9116 419.045 37.8397 423.643 37.8397C427.986 37.8397 431.732 39.8265 434.883 43.7717C438.033 47.7453 439.708 53.6489 439.907 61.5109H407.295Z" fill="white"/>
<path d="M535.156 106.81C534.475 102.552 534.106 96.0526 534.106 87.3391L534.305 56.2317C534.305 44.4812 533.255 36.3638 531.183 31.9077C529.111 27.4516 525.648 23.9322 520.795 21.3494C515.941 18.7665 508.931 17.4609 499.735 17.4609C489.403 17.4609 481.485 19.7032 475.95 24.1593C470.444 28.6153 466.498 35.9097 464.086 46.0707L483.84 50.4132C485.231 45.5598 487.048 42.239 489.261 40.4793C491.504 38.7196 494.569 37.8397 498.486 37.8397C502.403 37.8397 505.298 38.4074 507.426 39.5143C509.527 40.6212 511.003 42.0687 511.769 43.8001C512.564 45.5314 512.961 49.2212 512.961 54.7842C508.987 56.7993 501.977 58.9848 491.901 61.3122C483.585 63.2706 477.539 65.5128 473.764 68.0389C469.99 70.5649 467.038 73.9425 464.966 78.1715C462.894 82.4005 461.844 87.3675 461.844 93.0724C461.844 102.041 464.398 109.251 469.507 114.643C474.616 120.064 481.172 122.761 489.148 122.761C493.945 122.761 498.457 121.654 502.715 119.412C506.972 117.169 510.946 113.849 514.664 109.421L517.502 120.405H539.045C537.143 115.608 535.866 111.067 535.185 106.81H535.156ZM512.933 77.4335C512.933 85.0969 512.365 90.376 511.173 93.2995C510.009 96.2229 507.909 98.7206 504.9 100.849C501.863 102.978 498.826 104.028 495.733 104.028C492.27 104.028 489.375 102.723 487.076 100.083C484.777 97.4433 483.613 94.2077 483.613 90.3477C483.613 86.9134 484.663 84.1319 486.735 81.9748C488.807 79.8177 493.235 77.8593 499.962 76.0996C505.837 74.5669 510.151 73.2613 512.904 72.126V77.4335H512.933Z" fill="white"/>
<path d="M660.441 33.0146C658.34 28.0193 655.247 24.1876 651.188 21.4913C647.129 18.7949 642.304 17.4609 636.684 17.4609C631.945 17.4609 627.488 18.7949 623.316 21.4345C619.116 24.0741 615.199 28.1044 611.537 33.4688C609.068 28.1044 605.918 24.0741 602.029 21.4345C598.141 18.7949 593.571 17.4609 588.264 17.4609C583.297 17.4609 578.642 18.7949 574.384 21.4913C570.099 24.1593 566.153 28.1896 562.577 33.5539V19.8167H542.539V120.405H564.365V71.4732C564.365 61.596 564.961 54.6139 566.153 50.47C567.346 46.3261 569.304 43.204 572.029 41.0469C574.725 38.8899 577.705 37.8113 580.912 37.8113C585.681 37.8113 588.888 39.8833 590.449 44.0839C591.641 47.2344 592.237 54.3017 592.237 65.229V120.433H614.063V72.0692C614.063 58.5307 615.539 49.4482 618.52 44.7935C621.471 40.1387 625.388 37.8397 630.242 37.8397C634.385 37.8397 637.366 39.4859 639.125 42.8067C640.885 46.1274 641.765 52.8258 641.765 62.8732V120.433H663.591V56.0614C663.591 45.7017 662.541 38.01 660.412 33.043L660.441 33.0146Z" fill="white"/>
<path d="M306.676 17.6875V54.6134C303.356 51.1507 299.694 48.5679 295.692 46.8365C291.69 45.1052 287.405 44.2537 282.807 44.2537C273.043 44.2537 264.84 47.4893 258.17 53.9606C251.5 60.4318 248.18 70.0536 248.18 82.769C248.18 95.4844 251.586 105.135 258.426 111.946C265.266 118.758 273.298 122.164 282.494 122.164C287.291 122.164 291.946 121.114 296.487 118.985C301.028 116.857 304.945 113.706 308.294 109.477V120.404H328.503V17.6875H306.676ZM288.625 105.362C278.606 105.362 270.488 95.3425 270.488 82.9677C270.488 70.5928 278.606 60.5737 288.625 60.5737C298.644 60.5737 306.762 70.5928 306.762 82.9677C306.762 95.3425 298.644 105.362 288.625 105.362Z" fill="white"/>
<path d="M786.458 207.789C785.777 203.532 785.408 197.032 785.408 188.319L785.607 157.211C785.607 145.461 784.556 137.372 782.484 132.916C780.413 128.459 776.95 124.94 772.096 122.357C767.243 119.746 760.232 118.469 751.036 118.469C740.705 118.469 732.786 120.683 727.252 125.139C721.746 129.595 717.8 136.889 715.388 147.05L735.142 151.393C736.533 146.539 738.349 143.218 740.563 141.459C742.806 139.699 745.871 138.819 749.788 138.819C753.704 138.819 756.599 139.387 758.7 140.494C760.8 141.601 762.248 143.048 763.042 144.779C763.837 146.539 764.234 150.201 764.234 155.764C760.261 157.779 753.25 159.964 743.146 162.32C734.83 164.278 728.784 166.521 725.01 169.047C721.235 171.573 718.311 174.95 716.239 179.179C714.167 183.437 713.117 188.375 713.117 194.08C713.117 203.049 715.672 210.258 720.781 215.651C725.889 221.072 732.446 223.769 740.45 223.769C745.246 223.769 749.759 222.662 754.017 220.419C758.274 218.177 762.248 214.856 765.966 210.429L768.804 221.413H790.346C788.473 216.616 787.168 212.075 786.458 207.817V207.789ZM764.263 178.413C764.263 186.076 763.667 191.355 762.503 194.279C761.339 197.202 759.239 199.7 756.23 201.829C753.194 203.957 750.157 205.008 747.063 205.008C743.6 205.008 740.705 203.674 738.406 201.062C736.107 198.423 734.972 195.187 734.972 191.327C734.972 187.921 736.022 185.111 738.094 182.954C740.166 180.797 744.565 178.839 751.32 177.051C757.167 175.546 761.481 174.212 764.263 173.077V178.385V178.413Z" fill="white"/>
<path d="M834.28 198.006C832.832 198.006 829.086 198.233 823.04 198.658L834.081 183.985L865.557 139.651V120.805H797.524V142.886L826.531 142.688C830.675 142.631 834.024 142.489 836.55 142.319C834.166 145.299 830.448 150.294 825.368 157.362L794.516 200.674V221.421H868.027V198.034H834.308L834.28 198.006Z" fill="white"/>
<path d="M914.234 198.006C912.786 198.006 909.04 198.233 902.994 198.658L914.035 183.985L945.512 139.651V120.805H877.478V142.886L906.485 142.688C910.629 142.631 913.979 142.489 916.505 142.319C914.12 145.299 910.402 150.294 905.322 157.362L874.441 200.674V221.421H947.981V198.034H914.234V198.006Z" fill="white"/>
<path d="M686.723 81.1172V105.753H708.55V81.1172H686.723ZM686.723 120.711V182.018C686.723 191.157 686.355 196.55 685.588 198.196C684.141 201.233 681.529 202.737 677.755 202.737C676.25 202.737 674.434 202.453 672.362 201.886L668.559 224.62C674.292 226.522 679.316 227.458 683.687 227.458C689.42 227.458 694.245 226.068 698.133 223.343C702.05 220.59 704.747 216.701 706.251 211.649C707.755 206.597 708.521 197.231 708.521 183.522V120.711H686.695H686.723Z" fill="white"/>
</svg>
