<svg width="569" height="179" viewBox="0 0 569 179" fill="none" xmlns="http://www.w3.org/2000/svg">
<path d="M472.281 128.651L493.894 124.628C495.766 135.045 501.567 140.253 511.297 140.253C516.475 140.253 520.342 139.255 522.899 137.259C525.457 135.263 526.735 132.674 526.735 129.493C526.735 127.31 526.174 125.595 525.051 124.347C523.866 123.1 521.527 122.008 518.034 121.072C500.319 116.394 489.06 111.934 484.257 107.693C478.269 102.391 475.275 95.124 475.275 85.8924C475.275 76.6608 478.207 69.2692 484.07 63.7178C489.934 58.1664 498.448 55.3906 509.613 55.3906C520.279 55.3906 528.388 57.4802 533.94 61.6594C539.491 65.7762 543.39 72.4504 545.635 81.682L525.332 86.2667C523.523 78.2826 518.408 74.2905 509.987 74.2905C504.685 74.2905 500.912 75.0702 498.666 76.6296C496.421 78.1266 495.298 80.0915 495.298 82.5241C495.298 84.7073 496.327 86.5162 498.386 87.9508C500.444 89.4478 506.837 91.6934 517.566 94.6874C529.605 98.0557 537.776 102.141 542.08 106.944C546.321 111.747 548.442 118.141 548.442 126.125C548.442 135.731 545.136 143.652 538.524 149.89C531.975 156.128 522.899 159.246 511.297 159.246C500.756 159.246 492.148 156.658 485.474 151.481C478.8 146.241 474.402 138.631 472.281 128.651Z" fill="white"/>
<path d="M464.701 57.6333V78.5916H450.011V118.637C450.011 127.307 450.23 132.328 450.666 133.701C451.54 136.196 453.317 137.443 456 137.443C457.996 137.443 460.865 136.601 464.607 134.917L466.479 155.314C461.489 157.934 455.844 159.244 449.544 159.244C444.055 159.244 439.657 157.934 436.351 155.314C433.045 152.694 430.831 148.92 429.708 143.993C428.835 140.375 428.398 133.014 428.398 121.912V78.5916H418.48V57.6333H428.398V37.8913L450.011 22.5469V57.6333H464.701Z" fill="white"/>
<path d="M387.327 125.376L408.753 129.774C405.884 139.754 401.424 147.177 395.374 152.042C389.323 156.845 381.963 159.246 373.293 159.246C361.254 159.246 351.96 155.223 345.411 147.177C337.676 137.82 333.809 124.721 333.809 107.88C333.809 91.2879 337.707 78.0019 345.504 68.0217C352.116 59.601 360.661 55.3906 371.141 55.3906C382.805 55.3906 391.943 59.6946 398.555 68.3024C406.165 78.1578 409.97 92.6914 409.97 111.903L409.876 114.897H355.89C356.014 122.757 357.761 128.838 361.129 133.142C364.56 137.446 368.677 139.598 373.48 139.598C380.403 139.598 385.019 134.857 387.327 125.376ZM388.543 98.8042C388.356 91.0696 386.703 85.2686 383.585 81.4013C380.466 77.4717 376.754 75.5068 372.45 75.5068C367.897 75.5068 364.061 77.534 360.942 81.5885C357.761 85.7053 356.202 91.4439 356.264 98.8042H388.543Z" fill="white"/>
<path d="M251.938 157V19.8359H273.551V92.6285L298.719 57.6357H325.291L297.409 93.9384L327.256 157H304.053L283.468 112.37L273.551 125.189V157H251.938Z" fill="white"/>
<path d="M236.314 87.0152L215.075 91.6934C213.516 81.2766 208.619 76.0682 200.385 76.0682C195.084 76.0682 190.811 78.3137 187.567 82.8048C184.324 87.2959 182.702 94.8745 182.702 105.541C182.702 117.33 184.324 125.657 187.567 130.522C190.811 135.388 195.146 137.82 200.573 137.82C204.627 137.82 207.964 136.448 210.584 133.703C213.204 130.897 215.075 125.969 216.198 118.92L237.437 123.318C233.07 147.27 220.502 159.246 199.731 159.246C186.444 159.246 176.589 154.194 170.164 144.089C163.74 133.984 160.527 121.821 160.527 107.599C160.527 90.5706 164.145 77.6276 171.381 68.7702C178.679 59.8505 188.222 55.3906 200.011 55.3906C209.555 55.3906 217.321 57.9168 223.309 62.9693C229.359 68.0217 233.694 76.037 236.314 87.0152Z" fill="white"/>
<path d="M121.512 44.1625V19.8359H143.125V44.1625H121.512ZM121.512 157V57.6357H143.125V157H121.512Z" fill="white"/>
<path d="M53.7694 157V43.0397H20.3672V19.8359H109.721V43.0397H76.4119V157H53.7694Z" fill="white"/>
<path fill-rule="evenodd" clip-rule="evenodd" d="M464.702 78.5933V57.635H463.747C465.666 54.7459 467.946 52.0224 470.609 49.5007C481.307 39.3722 495.378 35.8125 509.612 35.8125C522.359 35.8125 535.331 38.2318 545.651 45.9713C556.016 53.6807 561.738 65.0538 564.657 77.0538C565.897 82.1534 565.038 87.5374 562.272 91.9977C561.271 93.6123 560.05 95.0569 558.657 96.2979C565.372 105.06 568.018 115.535 568.018 126.124C568.018 140.764 562.741 153.942 551.984 164.104C540.855 174.68 526.429 178.822 511.296 178.822C497.509 178.822 484.358 175.391 473.474 166.948L473.418 166.905L473.384 166.878C469.551 163.869 466.276 160.445 463.514 156.687C464.527 156.279 465.515 155.822 466.479 155.316L464.608 134.919C460.865 136.603 457.996 137.445 456 137.445C455.362 137.445 454.775 137.374 454.239 137.233C453.824 135.749 453.455 134.244 453.131 132.719C452.034 127.556 453.068 122.169 455.999 117.779C457.67 115.276 459.878 113.218 462.429 111.732C457.804 104.01 455.697 95.1537 455.697 85.8913C455.697 83.4247 455.844 80.988 456.144 78.5933H464.702ZM483.199 106.704C483.54 107.041 483.893 107.37 484.256 107.692C485.921 109.162 488.361 110.658 491.577 112.18C496.695 114.604 503.779 117.094 512.827 119.65C514.496 120.122 516.231 120.595 518.033 121.071C521.526 122.007 523.865 123.098 525.05 124.346C526.173 125.593 526.734 127.309 526.734 129.492C526.734 132.673 525.456 135.262 522.898 137.258C522.849 137.296 522.8 137.334 522.75 137.372C520.632 138.962 517.65 139.893 513.804 140.167C513.753 140.17 513.702 140.174 513.65 140.177C512.898 140.227 512.114 140.252 511.296 140.252C508.359 140.252 505.78 139.777 503.559 138.828C501.957 138.144 500.541 137.212 499.311 136.033C496.677 133.509 494.898 129.85 493.974 125.058C493.946 124.915 493.919 124.772 493.893 124.627L472.28 128.65C473.857 136.07 476.692 142.18 480.786 146.98C482.199 148.636 483.761 150.136 485.473 151.479C488.918 154.152 492.878 156.135 497.354 157.428C501.549 158.639 506.196 159.245 511.296 159.245C520.09 159.245 527.433 157.453 533.324 153.87C535.205 152.726 536.938 151.399 538.523 149.889C545.135 143.651 548.441 135.73 548.441 126.124C548.441 118.14 546.32 111.746 542.079 106.943C540.996 105.734 539.668 104.571 538.095 103.453C535.436 101.564 532.078 99.8044 528.02 98.1747C524.938 96.937 521.454 95.7742 517.565 94.6863C514.782 93.9096 512.291 93.1834 510.091 92.5075C510.056 92.4967 510.021 92.4859 509.986 92.4752C509.851 92.4335 509.717 92.392 509.583 92.3507C509.397 92.293 509.214 92.2357 509.032 92.1788C508.266 91.9387 507.539 91.7053 506.85 91.4786C506.706 91.431 506.563 91.3838 506.422 91.3368C502.265 89.9527 499.586 88.8236 498.384 87.9497C496.326 86.515 495.297 84.7061 495.297 82.523C495.297 82.1953 495.317 81.8761 495.358 81.5654C495.552 80.0888 496.205 78.804 497.319 77.7109C497.711 77.3263 498.16 76.9655 498.665 76.6285C500.6 75.2847 503.67 74.52 507.874 74.3341C508.014 74.3279 508.156 74.3223 508.299 74.3174C508.725 74.3028 509.163 74.2938 509.612 74.2907C509.736 74.2898 509.861 74.2894 509.986 74.2894C510.726 74.2894 511.439 74.3201 512.127 74.3816C513.984 74.5476 515.655 74.9373 517.14 75.5507C519.044 76.337 520.644 77.4908 521.939 79.0121C521.942 79.0154 521.945 79.0188 521.948 79.0221C523.531 80.886 524.659 83.3005 525.331 86.2655L545.634 81.6809C543.729 73.8491 540.634 67.858 536.35 63.7074C535.584 62.9656 534.78 62.2825 533.939 61.6583C530.904 59.3738 527.105 57.7137 522.542 56.678C518.856 55.8412 514.671 55.412 509.986 55.3903C509.862 55.3898 509.737 55.3895 509.612 55.3895C500.738 55.3895 493.538 57.1431 488.013 60.6502C487.91 60.7154 487.808 60.7813 487.706 60.8478C486.398 61.7034 485.186 62.6597 484.069 63.7167C480.05 67.5221 477.408 72.1922 476.144 77.727C475.564 80.2664 475.274 82.9878 475.274 85.8913C475.274 94.5624 477.916 101.5 483.199 106.704Z" fill="black"/>
<path fill-rule="evenodd" clip-rule="evenodd" d="M469.591 38.6702C478.038 40.8411 484.281 48.5077 484.281 57.6322V63.5179C484.211 63.5829 484.141 63.6482 484.071 63.7139C479.844 67.7163 477.141 72.6751 475.961 78.5905C475.505 80.8799 475.276 83.3125 475.276 85.8885C475.276 88.939 475.603 91.775 476.257 94.3964C474.284 95.8415 472.029 96.9259 469.591 97.5525V115.983C471.285 116.428 472.929 117.104 474.477 118.007C478.005 120.066 480.75 123.144 482.408 126.762L472.282 128.647C472.685 130.543 473.17 132.354 473.738 134.078C476.156 141.433 480.069 147.232 485.475 151.477C485.587 151.563 485.699 151.65 485.812 151.735L485.977 153.524C486.7 161.415 482.597 168.963 475.581 172.646C467.467 176.906 458.638 178.819 449.546 178.819C440.984 178.819 431.883 176.748 424.195 170.656C416.77 164.772 412.568 156.789 410.647 148.447C409.165 142.185 408.824 132.541 408.824 121.911V114.893H409.875L409.969 111.899C409.969 106.058 409.617 100.649 408.914 95.6733C408.884 95.4659 408.855 95.2592 408.824 95.0533C407.91 88.8933 406.45 83.4057 404.442 78.5905C402.914 74.9244 401.069 71.648 398.906 68.7614V57.6322C398.906 50.3327 402.901 43.9663 408.824 40.6001V37.8903C408.824 31.548 411.896 25.5987 417.068 21.9272L438.681 6.58274C444.652 2.34336 452.491 1.79116 458.997 5.15146C465.504 8.51177 469.591 15.2226 469.591 22.5458V38.6702ZM428.401 57.6322H418.483V78.5905H428.401V121.911C428.401 133.013 428.838 140.374 429.711 143.992C430.834 148.919 433.048 152.693 436.354 155.313C439.66 157.933 444.057 159.242 449.546 159.242C455.846 159.242 461.491 157.933 466.481 155.313L464.61 134.916C460.868 136.6 457.998 137.442 456.002 137.442C454.374 137.442 453.078 136.982 452.117 136.062C451.495 135.467 451.012 134.679 450.669 133.7C450.233 132.327 450.014 127.306 450.014 118.636V78.5905H464.704V57.6322H450.014V22.5458L428.401 37.8903V57.6322Z" fill="black"/>
<path fill-rule="evenodd" clip-rule="evenodd" d="M324.791 151.788C326.408 154.509 328.232 157.117 330.277 159.596C341.161 172.927 356.447 178.822 373.291 178.822C385.81 178.822 397.609 175.26 407.544 167.374C407.576 167.349 407.608 167.323 407.64 167.297C417.741 159.175 423.953 147.752 427.567 135.182C428.657 131.389 428.567 127.39 427.364 123.702C427.763 122.911 428.11 122.089 428.4 121.24V93.6929C427.696 88.4582 426.647 83.4068 425.199 78.5933H418.483V62.9265C417.149 60.6418 415.677 58.4466 414.059 56.35C403.434 42.5338 388.351 35.8125 371.139 35.8125C354.5 35.8125 340.334 42.9028 330.105 55.9305L330.076 55.9681C318.858 70.3273 314.23 88.2789 314.23 107.879C314.23 119.488 315.805 130.562 319.482 140.571L324.791 151.788ZM408.752 129.773C408.282 131.408 407.769 132.975 407.213 134.473C405.231 139.819 402.704 144.29 399.634 147.886C398.314 149.433 396.894 150.818 395.372 152.041C389.322 156.844 381.962 159.245 373.291 159.245C361.253 159.245 351.959 155.222 345.409 147.176C337.675 137.819 333.807 124.72 333.807 107.879C333.807 91.2868 337.706 78.0007 345.503 68.0206C352.115 59.5999 360.66 55.3895 371.139 55.3895C382.804 55.3895 391.942 59.6934 398.554 68.3013C403.794 75.0885 407.23 84.0944 408.862 95.319C409.385 98.9176 409.723 102.744 409.875 106.799C409.915 107.862 409.942 108.94 409.956 110.035C409.964 110.652 409.968 111.275 409.968 111.902L409.875 114.896H355.888C355.908 116.099 355.965 117.26 356.06 118.379C356.586 124.575 358.275 129.496 361.128 133.141C361.502 133.611 361.885 134.055 362.276 134.473C365.465 137.889 369.2 139.597 373.478 139.597C377.634 139.597 380.959 137.889 383.452 134.473C385.112 132.198 386.403 129.165 387.326 125.375L408.752 129.773ZM356.263 97.961C356.26 98.2393 356.26 98.52 356.263 98.8031H388.542C388.513 97.5945 388.448 96.4332 388.347 95.319C387.803 89.3028 386.215 84.6632 383.583 81.4002C382.942 80.5925 382.276 79.8678 381.585 79.2261C378.914 76.7458 375.869 75.5057 372.449 75.5057C368.888 75.5057 365.765 76.7458 363.081 79.2261C362.334 79.9169 361.62 80.704 360.941 81.5873C358.28 85.0303 356.754 89.6075 356.362 95.319C356.304 96.1743 356.271 97.0549 356.263 97.961Z" fill="black"/>
<path fill-rule="evenodd" clip-rule="evenodd" d="M251.94 176.576C241.128 176.576 232.363 167.811 232.363 156.999V139.581C234.61 134.971 236.302 129.549 237.438 123.316L232.363 122.266V87.884L236.315 87.0136C235.271 82.6363 233.953 78.7301 232.363 75.2949V19.8348C232.363 9.02273 241.128 0.257812 251.94 0.257812H273.554C284.366 0.257812 293.13 9.02273 293.13 19.8348V38.8729C294.924 38.3383 296.805 38.0576 298.722 38.0576H325.294C332.75 38.0576 339.558 42.2924 342.854 48.9798C346.15 55.6673 345.362 63.6464 340.82 69.5592L320.225 96.3748L337.592 133.068C338.791 136.481 340.276 139.618 342.046 142.479L344.954 148.624C347.825 154.689 347.389 161.801 343.8 167.471C340.211 173.14 333.969 176.576 327.259 176.576H304.055C298.046 176.576 292.468 173.826 288.804 169.275C285.216 173.728 279.717 176.576 273.554 176.576H251.94ZM273.554 125.188L283.471 112.369L304.055 156.999H327.259L297.412 93.9373L325.294 57.6346H298.722L273.554 92.6274V19.8348H251.94V156.999H273.554V125.188Z" fill="black"/>
<path fill-rule="evenodd" clip-rule="evenodd" d="M143.125 128.71C145.135 137.946 148.583 146.631 153.644 154.592C164.105 171.045 180.62 178.822 199.731 178.822C214.095 178.822 227.621 174.556 238.241 164.436C244.352 158.613 248.791 151.525 251.94 143.694V110.165C249.86 107.869 247.225 106.049 244.188 104.938C247.242 103.596 249.916 101.49 251.94 98.8087V71.3552C248.458 62.3381 243.333 54.1981 235.897 47.975C225.659 39.3529 213.113 35.8125 200.012 35.8125C182.507 35.8125 167.343 42.7886 156.229 56.3722L156.22 56.3838C149.526 64.5781 145.378 74.3404 143.125 85.0163V128.71ZM223.309 62.9681C217.321 57.9157 209.555 55.3895 200.012 55.3895C188.223 55.3895 178.679 59.8494 171.381 68.7691C164.146 77.6265 160.528 90.5695 160.528 107.598C160.528 121.82 163.74 133.983 170.165 144.088C176.59 154.193 186.445 159.245 199.731 159.245C214.123 159.245 224.578 153.495 231.094 141.996C233.46 137.82 235.307 132.886 236.634 127.195C236.927 125.939 237.195 124.646 237.437 123.317L216.198 118.919C215.88 120.917 215.502 122.744 215.063 124.401C213.955 128.591 212.462 131.691 210.584 133.702C207.965 136.447 204.628 137.819 200.573 137.819C195.146 137.819 190.811 135.386 187.568 130.521C184.324 125.656 182.702 117.329 182.702 105.54C182.702 94.8734 184.324 87.2947 187.568 82.8037C190.811 78.3126 195.084 76.0671 200.386 76.0671C207.27 76.0671 211.821 79.7079 214.04 86.9896C214.475 88.4172 214.82 89.9847 215.076 91.6922L236.314 87.014C234.527 79.5217 231.94 73.4095 228.554 68.6772C226.979 66.4754 225.23 64.5724 223.309 62.9681ZM195.463 121.397C195.453 121.418 195.447 121.429 195.447 121.428C195.447 121.428 195.452 121.417 195.463 121.397Z" fill="black"/>
<path fill-rule="evenodd" clip-rule="evenodd" d="M103.123 50.898C102.354 48.7976 101.934 46.5285 101.934 44.1614V43.0386H109.722V19.8348H101.934C101.934 9.02273 110.699 0.257812 121.511 0.257812H143.124C153.936 0.257812 162.701 9.02273 162.701 19.8348V44.1614C162.701 46.5285 162.281 48.7976 161.511 50.898C162.281 52.9984 162.701 55.2674 162.701 57.6346V87.1884C161.251 93.1731 160.527 99.9761 160.527 107.598C160.527 114.353 161.251 120.643 162.701 126.469V156.999C162.701 167.811 153.936 176.576 143.124 176.576H121.511C110.699 176.576 101.934 167.811 101.934 156.999V57.6346C101.934 55.2674 102.354 52.9984 103.123 50.898ZM143.124 57.6346H121.511V156.999H143.124V57.6346ZM143.124 19.8348H121.511V44.1614H143.124V19.8348Z" fill="black"/>
<path fill-rule="evenodd" clip-rule="evenodd" d="M53.7722 176.576C42.9601 176.576 34.1952 167.811 34.1952 156.999V62.6156H20.37C9.55788 62.6156 0.792969 53.8507 0.792969 43.0386V19.8348C0.792969 9.02273 9.55788 0.257812 20.37 0.257812H109.723C120.535 0.257812 129.3 9.02273 129.3 19.8348H121.512V44.1614H129.269C128.966 49.509 126.518 54.2827 122.77 57.6346H121.512V58.6694C118.233 61.1465 114.15 62.6156 109.723 62.6156H95.9916V156.999C95.9916 167.811 87.2267 176.576 76.4146 176.576H53.7722ZM76.4146 43.0386H109.723V19.8348H20.37V43.0386H53.7722V156.999H76.4146V43.0386Z" fill="black"/>
</svg>
